<?xml version="1.0" encoding="UTF-8" standalone="no"?>
<!-- Created with Inkscape (http://www.inkscape.org/) -->

<svg
   width="512"
   height="512"
   viewBox="0 0 135.46666 135.46667"
   version="1.1"
   id="svg5"
   inkscape:version="1.1.1 (3bf5ae0d25, 2021-09-20)"
   sodipodi:docname="icon.svg"
   inkscape:export-filename="/home/short/work/sokoban.app/src/assets/icon.png"
   inkscape:export-xdpi="192.00002"
   inkscape:export-ydpi="192.00002"
   xmlns:inkscape="http://www.inkscape.org/namespaces/inkscape"
   xmlns:sodipodi="http://sodipodi.sourceforge.net/DTD/sodipodi-0.dtd"
   xmlns="http://www.w3.org/2000/svg"
   xmlns:svg="http://www.w3.org/2000/svg">
  <sodipodi:namedview
     id="namedview7"
     pagecolor="#ffffff"
     bordercolor="#666666"
     borderopacity="1.0"
     inkscape:pageshadow="2"
     inkscape:pageopacity="0.0"
     inkscape:pagecheckerboard="true"
     inkscape:document-units="mm"
     showgrid="false"
     units="px"
     width="512px"
     inkscape:zoom="2"
     inkscape:cx="176.25"
     inkscape:cy="266"
     inkscape:window-width="2560"
     inkscape:window-height="1371"
     inkscape:window-x="26"
     inkscape:window-y="23"
     inkscape:window-maximized="0"
     inkscape:current-layer="layer3" />
  <defs
     id="defs2" />
  <g
     inkscape:label="Layer 1"
     inkscape:groupmode="layer"
     id="layer1" />
  <g
     inkscape:groupmode="layer"
     id="layer3"
     inkscape:label="Box Color">
    <path
       style="fill:#a86842;fill-opacity:1;stroke-width:0.352774;stroke-linejoin:round;stroke-miterlimit:4;stroke-dasharray:none;paint-order:markers fill stroke"
       d="M 185.09016,195.02008 C 115.37843,166.45317 56.902581,142.38918 56.91993,142.15422 c 0.01735,-0.23496 38.082602,-30.1913 82.58387,-65.12277 l 81.26716,-63.791022 116.5123,46.719829 c 63.67474,25.532698 117.67727,47.229123 117.91132,47.482833 0.23405,0.25371 -18.46053,18.50284 -39.8901,39.47731 -21.42958,20.97446 -53.55548,52.48379 -70.86051,69.4516 l -31.61123,30.99523 z m 187.60475,-29.85445 52.98231,-51.5442 -4.90097,-1.98441 C 417.73339,110.40497 372.33307,92.7711 319.41389,70.72017 L 223.38522,31.838117 154.53744,85.302026 c -48.52963,37.685804 -68.065371,52.160734 -67.40118,52.575514 0.519845,0.32464 50.22295,20.00262 111.09021,45.10296 l 110.62527,44.48884 5.3071,-5.25367 c 2.86917,-2.84028 28.42022,-28.55292 58.53607,-57.05004 z"
       id="path56254"
       transform="scale(0.26458333)"
       sodipodi:nodetypes="ssscsssscsscsscssscss" />
    <path
       style="fill:#a86842;fill-opacity:1;stroke-width:0.352774;stroke-linejoin:round;stroke-miterlimit:4;stroke-dasharray:none;paint-order:markers fill stroke"
       d=""
       id="path56293"
       transform="scale(0.26458333)" />
    <path
       style="fill:#a86842;fill-opacity:1;stroke-width:0.352774;stroke-linejoin:round;stroke-miterlimit:4;stroke-dasharray:none;paint-order:markers fill stroke"
       d="M 187.68989,449.88238 C 118.85305,423.34075 60.674897,400.93609 60.158915,400.61358 59.396978,400.13733 59.84658,377.59454 58.447784,282.26214 57.500523,217.7033 56.712236,160.20121 56.59514,154.52765 l -0.24308,-11.77774 128.97146,52.39512 127.50922,52.2222 0.83295,125.26644 c 0.45512,68.44448 0.98075,125.96507 0.89382,126.01661 -0.0869,0.0515 -58.03277,-22.22627 -126.86962,-48.7679 z M 294.68229,365.34061 294.5591,261.68569 183.89023,216.03607 C 122.85368,190.8592 74.233663,170.80494 73.453675,170.4796 l -2.014722,-0.84036 0.247284,16.41651 c 0.14577,9.67725 1.372756,58.65049 2.424217,108.71403 1.05146,50.06355 1.794798,90.27229 1.965296,90.42494 0.393123,0.35197 217.71106,83.21703 218.4267,83.2889 0.29168,0.0293 -0.11429,-45.65125 0.17984,-103.14301 z"
       id="path56332"
       transform="scale(0.26458333)"
       sodipodi:nodetypes="sssscccsssscsscsssss" />
    <path
       style="fill:#a86842;fill-opacity:1;stroke-width:0.352774;stroke-linejoin:round;stroke-miterlimit:4;stroke-dasharray:none;paint-order:markers fill stroke"
       d="m 314.53433,472.56657 c -0.15606,-12.94391 -0.58869,-60.16907 -0.7877,-104.89358 -0.19902,-44.7245 -0.60561,-89.59202 -0.71103,-100.09445 l -0.20286,-20.21131 60.76309,-59.41985 c 33.57329,-32.83111 65.5314,-64.19974 70.65255,-69.26422 l 11.39751,-11.27139 -1.32978,128.94189 1.10935,126.2354 -59.77481,57.80643 c -32.75047,31.672 -63.99624,61.98198 -69.37282,67.06625 l -11.43356,10.81195 z m 66.47145,-59.82342 c 27.61252,-26.1767 53.14169,-50.54746 56.9678,-54.2057 l 6.54122,-6.25423 0.23508,-107.37325 c 0.1336,-61.0215 0.78864,-104.54792 0.43645,-104.54792 -0.34086,0 -26.10093,24.51106 -57.97563,56.76232 l -57.95399,58.63866 0.46452,34.0647 c 0.25581,18.75972 0.0512,65.91686 -0.42447,104.81368 l -0.82999,67.87366 1.78094,-1.75634 c 1.03404,-1.01975 23.14555,-21.83887 50.75807,-48.01558 z"
       id="path56371"
       transform="scale(0.26458333)"
       sodipodi:nodetypes="ssscsscccsscssscssscsscss" />
    <path
       style="fill:#ac6b44;fill-opacity:1;stroke-width:0.249449;stroke-linejoin:round;stroke-miterlimit:4;stroke-dasharray:none;paint-order:markers fill stroke"
       d="m 291.72057,220.39445 c -8.79796,-3.56827 -16.82432,-6.41789 -17.15397,-6.75385 -0.45582,-0.46454 -61.71984,-140.864316 -70.30095,-160.676245 l -1.98788,-4.589576 10.83355,-8.490142 10.2739,-8.04652 13.85654,5.591693 c 7.6211,3.075432 15.08936,6.099659 15.23578,6.246083 0.14642,0.146423 16.90172,35.933934 38.37111,80.211697 l 39.92778,82.34574 -10.23273,10.01587 c -5.62934,5.51003 -10.44903,11.7777 -10.7823,11.83194 -0.33328,0.0542 -9.24286,-4.11841 -18.04083,-7.68669 z"
       id="path60380"
       transform="scale(0.26458333)"
       sodipodi:nodetypes="ssscccssscsss" />
    <path
       style="fill:#bb7b54;fill-opacity:1;stroke-width:0.249449;stroke-linejoin:round;stroke-miterlimit:4;stroke-dasharray:none;paint-order:markers fill stroke"
       d="m 292.54339,124.78706 c -4.8313,-10.01712 -8.73,-18.26407 -8.66378,-18.32657 0.12529,-0.11826 14.87001,-0.75112 74.59715,-3.2018 l 35.47676,-1.45566 14.27324,5.77237 c 7.85028,3.17481 14.57315,5.93852 14.93971,6.14157 1.02612,0.56843 -24.25882,25.01956 -25.91647,25.06184 -0.6875,0.0175 -22.5513,0.97448 -48.58622,2.12654 L 301.32756,143 Z"
       id="path62755"
       transform="scale(0.26458333)" />
    <path
       style="fill:#bb7b54;fill-opacity:1;stroke-width:0.249449;stroke-linejoin:round;stroke-miterlimit:4;stroke-dasharray:none;paint-order:markers fill stroke"
       d="m 106.11343,144.66792 c -9.562619,-3.88379 -17.325119,-7.11236 -17.250004,-7.17459 0.07512,-0.0622 6.796722,-5.28157 14.936904,-11.59853 l 14.80033,-11.48539 5.44967,-0.30538 c 32.80184,-1.8381 103.32238,-4.93132 103.70493,-4.54877 0.26054,0.26054 3.95599,8.45469 8.21213,18.20922 l 7.73842,17.73552 -2.10291,0.13848 c -1.15659,0.0762 -26.2904,1.36049 -55.8529,2.85404 -29.5625,1.49355 -55.6625,2.83284 -58,2.9762 l -4.25,0.26064 z"
       id="path62979"
       transform="scale(0.26458333)" />
    <path
       style="fill:#bb7b54;fill-opacity:1;stroke-width:0.249449;stroke-linejoin:round;stroke-miterlimit:4;stroke-dasharray:none;paint-order:markers fill stroke"
       d="M 112.804,260.47178 73.16992,207.12612 72.745688,189.319 c -0.233328,-9.79392 -0.345094,-17.88626 -0.248369,-17.98299 0.09672,-0.0967 7.917201,3.0143 17.378835,6.91339 l 17.202976,7.08924 40.59152,53.83068 c 22.32534,29.60687 40.61639,54.0485 40.64679,54.31473 0.0516,0.45195 -33.38986,19.60889 -35.0984,20.10612 -0.56073,0.16318 -11.95757,-14.81594 -40.41504,-53.11839 z"
       id="path63057"
       transform="scale(0.26458333)" />
    <path
       style="fill:#bb7b54;fill-opacity:1;stroke-width:0.249449;stroke-linejoin:round;stroke-miterlimit:4;stroke-dasharray:none;paint-order:markers fill stroke"
       d="M 87.950747,388.85151 76.901494,384.56576 76.60573,371.53288 c -0.162671,-7.16809 -0.114553,-13.09778 0.106928,-13.17711 1.907337,-0.68311 62.103192,-34.29849 140.879092,-78.67159 27.27547,-15.3638 49.78772,-27.93418 50.02724,-27.93418 0.23951,0 6.14847,2.3625 13.13101,5.25 6.98254,2.8875 12.76403,5.25 12.84776,5.25 0.0837,0 0.15224,6.37417 0.15224,14.16482 v 14.16482 l -96.68318,51.33518 c -53.17574,28.23435 -96.99449,51.30981 -97.374995,51.27881 -0.380504,-0.031 -5.663989,-1.98496 -11.741078,-4.34212 z"
       id="path63096"
       transform="scale(0.26458333)" />
    <path
       style="fill:#bb7b54;fill-opacity:1;stroke-width:0.249449;stroke-linejoin:round;stroke-miterlimit:4;stroke-dasharray:none;paint-order:markers fill stroke"
       d="M 379,326.17404 330.5,285.61642 330.3685,270.80821 330.23699,256 l 8.89648,-8.88489 8.89648,-8.8849 47.86002,43.51365 47.86003,43.51365 v 13.20359 13.2036 l -7.78678,7.41765 c -4.28272,4.07971 -7.93897,7.46977 -8.125,7.53348 C 427.6522,366.67954 405.675,348.48073 379,326.17404 Z"
       id="path63135"
       transform="scale(0.26458333)" />
    <path
       style="fill:#bb7b54;fill-opacity:1;stroke-width:0.249449;stroke-linejoin:round;stroke-miterlimit:4;stroke-dasharray:none;paint-order:markers fill stroke"
       d="m 397.43858,280.60119 c -6.08378,-5.55565 -12.09851,-11.05838 -13.36607,-12.22827 l -2.30467,-2.12707 16.95879,-48.37293 L 415.68542,169.5 429.59271,155.78136 443.5,142.06273 443.63662,164.53136 443.77325,187 426.38663,238.86958 c -9.56265,28.52827 -17.49913,51.86131 -17.63663,51.85119 -0.1375,-0.0101 -5.22764,-4.56392 -11.31142,-10.11958 z"
       id="path63174"
       transform="scale(0.26458333)" />
    <path
       style="fill:#c08562;fill-opacity:1;stroke-width:0.249449;stroke-linejoin:round;stroke-miterlimit:4;stroke-dasharray:none;paint-order:markers fill stroke"
       d="m 119.02988,113.17823 c 1.6858,-1.57604 82.85083,-64.540605 83.20412,-64.540605 0.24179,0 2.7454,6.247969 5.39995,12.354424 3.82715,8.803859 5.60262,11.402516 5.10345,11.863721 -0.34622,0.319898 -11.33789,9.844513 -23.9342,19.575978 l -22.68302,18.709362 -19.82088,0.55662 c -22.26443,0.62524 -27.94089,2.10826 -27.26942,1.4805 z"
       id="path63213"
       transform="scale(0.26458333)"
       sodipodi:nodetypes="ssssscss" />
    <path
       style="fill:#c08562;fill-opacity:1;stroke-width:0.249449;stroke-linejoin:round;stroke-miterlimit:4;stroke-dasharray:none;paint-order:markers fill stroke"
       d="m 167.82471,110.23226 c -0.13886,-0.38997 9.86035,-8.52711 21.2041,-17.805928 11.34375,-9.278817 22.87617,-18.495641 23.44389,-19.001498 1.0298,-0.917593 0.86667,0.464137 7.67447,16.052658 3.75305,8.593742 7.82761,17.758288 7.99342,18.209338 0.38154,1.03783 -2.22068,0.56463 -30.32748,1.86102 -11.6875,0.53907 -25.77993,1.45803 -27.77368,1.61474 -1.99375,0.15672 -1.82561,-0.12822 -2.01746,-0.37633 z"
       id="path63548"
       transform="scale(0.26458333)"
       sodipodi:nodetypes="ssssssscs" />
    <path
       style="fill:#c08562;fill-opacity:1;stroke-width:0.249449;stroke-linejoin:round;stroke-miterlimit:4;stroke-dasharray:none;paint-order:markers fill stroke"
       d="m 149.97253,163.19846 c -11.8391,-4.92923 -24.92652,-10.20093 -24.84386,-10.28358 0.0827,-0.0827 10.0049,-0.85375 17.82373,-1.27132 33.77438,-1.80373 53.91059,-2.56189 54.00191,-2.45606 0.0919,0.10657 -9.30011,8.7766 -20.10299,18.35723 l -5.25222,4.65797 z"
       id="path63587"
       transform="scale(0.26458333)"
       sodipodi:nodetypes="ssssscs" />
    <path
       style="fill:#c08562;fill-opacity:1;stroke-width:0.249449;stroke-linejoin:round;stroke-miterlimit:4;stroke-dasharray:none;paint-order:markers fill stroke"
       d="m 195.46896,181.86496 c -11.75049,-4.73736 -23.26832,-9.77667 -23.20533,-9.93224 0.063,-0.15558 6.32791,-6.20038 13.29675,-11.87401 l 12.2826,-11.12317 23.5169,-1.39133 c 12.68563,-0.75052 23.49727,-1.142 23.79222,-1.14797 0.29494,-0.006 0.68473,1.30835 1.39808,3.0271 0.71335,1.71875 1.88859,4.28665 2.51987,5.89667 l 1.61502,4.11897 -16.71644,15.71478 c -8.7571,8.23236 -16.1864,15.14884 -16.52305,15.2112 -0.33664,0.0624 -10.22612,-3.76265 -21.97662,-8.5 z"
       id="path63626"
       transform="scale(0.26458333)"
       sodipodi:nodetypes="ssscsssscsss" />
    <path
       style="fill:#c08562;fill-opacity:1;stroke-width:0.249449;stroke-linejoin:round;stroke-miterlimit:4;stroke-dasharray:none;paint-order:markers fill stroke"
       d="m 277.08287,94.552409 c -4.26439,-9.094 -6.37255,-11.773359 -5.81495,-12.192752 0.37804,-0.284339 6.46805,-5.785664 12.35768,-11.223891 l 10.90565,-10.06982 21.55223,8.34787 c 11.39146,4.412281 22.06257,8.813361 21.9908,9.02147 -0.0718,0.208108 -7.1745,6.479194 -14.35316,13.253813 l -13.26103,12.514671 -8.31247,0.47655 c -3.92907,0.22526 -10.54468,0.49493 -12.55499,0.56447 l -7.37619,0.25517 z"
       id="path63665"
       transform="scale(0.26458333)"
       sodipodi:nodetypes="ssscssscsscs" />
    <path
       style="fill:#c08562;fill-opacity:1;stroke-width:0.249449;stroke-linejoin:round;stroke-miterlimit:4;stroke-dasharray:none;paint-order:markers fill stroke"
       d="m 268.11444,76.274949 c -1.45896,-3.116178 -5.43221,-11.424554 -8.5206,-17.84067 -3.0884,-6.416116 -6.68858,-14.247173 -6.55651,-14.379244 0.13207,-0.13207 11.27706,3.729426 21.53229,8.440529 l 19.96163,8.570382 -9.67818,8.729686 c -4.99415,4.504702 -9.60582,8.788033 -10.62378,9.720075 l -3.21808,2.946447 z"
       id="path63704"
       transform="scale(0.26458333)"
       sodipodi:nodetypes="sssscsscs" />
    <path
       style="fill:#c08562;fill-opacity:1;stroke-width:0.249449;stroke-linejoin:round;stroke-miterlimit:4;stroke-dasharray:none;paint-order:markers fill stroke"
       d="m 314.23043,100.76687 c 1.09596,-1.062306 6.6836,-6.862925 12.9162,-11.996947 l 11.36596,-10.598077 22.08528,9.228606 23.06472,9.511822 -2.74474,2.568461 -1.80599,1.865105 -31.74669,1.48358 c -17.18339,0.80302 -31.29779,1.33608 -32.11875,1.33286 l -4.11588,0.0707 z"
       id="path63743"
       transform="scale(0.26458333)"
       sodipodi:nodetypes="cscccccsccc" />
    <path
       style="fill:#c08562;fill-opacity:1;stroke-width:0.249449;stroke-linejoin:round;stroke-miterlimit:4;stroke-dasharray:none;paint-order:markers fill stroke"
       d="m 306.28646,155.55598 c -2.7139,-5.51132 -5.32471,-11.31708 -5.25608,-11.38571 0.0686,-0.0686 5.62111,-0.45355 11.92435,-0.72271 6.30324,-0.26915 12.86322,-0.63713 15.34129,-0.73227 l 8.6956,-0.33386 -9.1674,8.80224 c -4.44884,4.27163 -5.7784,5.74117 -10.66877,10.62603 l -5.29834,5.05902 z"
       id="path63782"
       transform="scale(0.26458333)"
       sodipodi:nodetypes="sssscsccs" />
    <path
       style="fill:#c08562;fill-opacity:1;stroke-width:0.249449;stroke-linejoin:round;stroke-miterlimit:4;stroke-dasharray:none;paint-order:markers fill stroke"
       d="m 242.60965,200.64783 c -12.7875,-5.17436 -24.99718,-10.06097 -24.93108,-10.24154 0.19098,-0.52175 32.83863,-30.39203 33.01767,-30.21298 0.0887,0.0887 5.34835,10.96501 10.59317,23.22989 l 9.66614,22.60402 -1.8106,2.22034 c -0.78429,0.96178 -1.72142,2.06301 -2.01122,2.05259 -0.28981,-0.0104 -11.73658,-4.47795 -24.52408,-9.65232 z"
       id="path63821"
       transform="scale(0.26458333)"
       sodipodi:nodetypes="sssscsss" />
    <path
       style="fill:#c08562;fill-opacity:1;stroke-width:0.249449;stroke-linejoin:round;stroke-miterlimit:4;stroke-dasharray:none;paint-order:markers fill stroke"
       d="m 325.73687,195.85633 c -2.47741,-5.10127 -6.22173,-13.09605 -8.70854,-18.25655 l -5.17122,-10.73106 4.59885,-4.43776 c 1.95922,-1.89058 8.18794,-8.83131 13.45265,-13.03022 l 7.08301,-7.01931 29.65629,-1.3798 c 15.35357,-0.71434 30.98744,-1.3174 31.75368,-1.23833 1.27127,0.13118 -3.01259,3.41769 -17.05889,17.06543 -8.46624,8.22603 -23.2226,22.80808 -32.72672,32.0525 l -17.83955,17.3521 z"
       id="path63860"
       transform="scale(0.26458333)"
       sodipodi:nodetypes="sscsscsssscs" />
    <path
       style="fill:#c08562;fill-opacity:1;stroke-width:0.249449;stroke-linejoin:round;stroke-miterlimit:4;stroke-dasharray:none;paint-order:markers fill stroke"
       d="m 363.24107,250.93037 c -7.73564,-7.03936 -15.25264,-13.81397 -15.24353,-14.00356 0.009,-0.18959 7.19032,-7.19194 14.80104,-15.06352 l 15.90276,-16.44786 0.0644,29.55387 c 0.0326,14.93676 0.11191,29.43468 -0.0148,29.5614 -0.12673,0.12673 -7.7742,-6.56097 -15.50985,-13.60033 z"
       id="path63899"
       transform="scale(0.26458333)"
       sodipodi:nodetypes="scscsss" />
    <path
       style="fill:#c08562;fill-opacity:1;stroke-width:0.249449;stroke-linejoin:round;stroke-miterlimit:4;stroke-dasharray:none;paint-order:markers fill stroke"
       d="m 378.8637,236.53115 -0.16236,-31.11572 12.13523,-11.80141 13.31809,-13.23019 0.0716,10.49186 0.004,8.72415 -11.47285,32.74658 c -6.22219,17.75979 -11.12612,34.22579 -12.88765,33.29679 -0.8289,-0.43715 -0.91861,-12.35937 -1.00602,-29.11206 z"
       id="path63977"
       transform="scale(0.26458333)"
       sodipodi:nodetypes="scccccsss" />
    <path
       style="fill:#c08562;fill-opacity:1;stroke-width:0.249449;stroke-linejoin:round;stroke-miterlimit:4;stroke-dasharray:none;paint-order:markers fill stroke"
       d="m 329.13014,347.95991 c -0.06,-32.97806 0.10979,-61.42903 0.20795,-61.52719 0.0982,-0.0982 5.73309,3.87661 10.18993,8.12532 l 9.07879,7.46238 -0.2999,28.74165 -0.0668,28.17766 -8.59061,24.46206 c -4.60967,13.12619 -10.62116,28.81192 -10.7983,29.22442 -0.17713,0.4125 0.34501,-28.3509 0.285,-61.32895 z"
       id="path64016"
       transform="scale(0.26458333)"
       sodipodi:nodetypes="ssscccssss" />
    <path
       style="fill:#c08562;fill-opacity:1;stroke-width:0.249449;stroke-linejoin:round;stroke-miterlimit:4;stroke-dasharray:none;paint-order:markers fill stroke"
       d="m 348.61102,327.23639 -0.004,-25.21597 8.59209,7.09866 c 3.68314,3.04296 6.73981,5.385 6.70353,5.67452 -0.0521,0.41621 -13.92974,38.95233 -15.06632,41.94608 -0.1566,0.4125 0.28446,-12.68547 -0.12534,-26.20547 z"
       id="path64094"
       transform="scale(0.26458333)"
       sodipodi:nodetypes="ccssssc" />
    <path
       style="fill:#c08562;fill-opacity:1;stroke-width:0.249449;stroke-linejoin:round;stroke-miterlimit:4;stroke-dasharray:none;paint-order:markers fill stroke"
       d="m 379.85266,396.43221 -0.15248,-15.0641 6.87899,-20.34726 7.02525,-21.35295 5.59877,4.69191 4.93767,4.21958 -0.002,21.18745 -0.0216,20.98219 -9.80921,9.22827 c -5.18263,4.87569 -9.59639,9.04302 -10.61951,10.01727 l -3.80512,3.62339 z"
       id="path64133"
       transform="scale(0.26458333)"
       sodipodi:nodetypes="ccccccccsscc" />
    <path
       style="fill:#c08562;fill-opacity:1;stroke-width:0.249449;stroke-linejoin:round;stroke-miterlimit:4;stroke-dasharray:none;paint-order:markers fill stroke"
       d="m 417.9569,300.25701 c -4.10684,-3.82553 -8.48893,-7.6763 -8.56161,-8.04826 -0.0727,-0.37196 3.80935,-11.79747 8.33147,-24.81227 l 9.54051,-27.45786 0.36951,35.57054 c 0.0215,17.25625 0.41362,33.24216 0.20737,33.22631 -0.20625,-0.0159 -4.78493,-3.72563 -8.89177,-7.55116 z"
       id="path64172"
       transform="scale(0.26458333)"
       sodipodi:nodetypes="sssccsss" />
    <path
       style="fill:#c08562;fill-opacity:1;stroke-width:0.249449;stroke-linejoin:round;stroke-miterlimit:4;stroke-dasharray:none;paint-order:markers fill stroke"
       d="m 436.08765,317.11297 -8.29414,-7.55437 0.0243,-36.05259 -0.0679,-35.70326 8.36401,-22.23734 8.16845,-25.79983 0.22742,35.98813 c 0.11128,17.61119 0.0339,46.69807 -0.0369,64.50933 l -0.10787,33.94428 z"
       id="path64211"
       transform="scale(0.26458333)"
       sodipodi:nodetypes="ccccccsccc" />
    <path
       style="fill:#c08562;fill-opacity:1;stroke-width:0.249449;stroke-linejoin:round;stroke-miterlimit:4;stroke-dasharray:none;paint-order:markers fill stroke"
       d="m 404.24573,188.52439 -0.003,-8.91454 6.15673,-5.85179 c 1.9657,-1.86835 3.82116,-3.66042 3.82116,-3.48436 0,0.49796 -9.3511,26.59892 -9.61899,26.86681 -0.1308,0.13081 -0.35413,-5.05666 -0.35549,-8.61612 z"
       id="path64289"
       transform="scale(0.26458333)"
       sodipodi:nodetypes="scssss" />
    <path
       style="fill:#c08562;fill-opacity:1;stroke-width:0.249449;stroke-linejoin:round;stroke-miterlimit:4;stroke-dasharray:none;paint-order:markers fill stroke"
       d="m 280.16245,413.05951 -12.97914,-17.14674 0.0186,-45.01271 -0.0186,-45.01565 13.47758,-7.22704 13.96052,-7.47995 -0.11575,35.90781 c -0.0607,18.83358 0.22968,49.60927 0.21661,68.28275 l -0.0259,37.01386 z"
       id="path64328"
       transform="scale(0.26458333)"
       sodipodi:nodetypes="ccccccsscc" />
    <path
       style="fill:#c08562;fill-opacity:1;stroke-width:0.249449;stroke-linejoin:round;stroke-miterlimit:4;stroke-dasharray:none;paint-order:markers fill stroke"
       d="m 245.24048,367.02615 -20.03645,-26.58333 -0.003,-5.79085 0.003,-6.52467 20.93125,-10.15416 21.04803,-12.08873 0.0186,23.19243 c 0.009,11.79187 0.38377,30.83215 -0.17846,42.51627 l 0.1599,24.31966 z"
       id="path64367"
       transform="scale(0.26458333)"
       sodipodi:nodetypes="ccccccsscc" />
    <path
       style="fill:#c08562;fill-opacity:1;stroke-width:0.249449;stroke-linejoin:round;stroke-miterlimit:4;stroke-dasharray:none;paint-order:markers fill stroke"
       d="m 225.19043,253.68303 c -0.007,-10.42297 -0.14067,-20.39519 0.008,-20.39519 0.66773,0 41.99632,17.07295 41.98531,17.34689 -0.007,0.16947 -11.02604,5.89373 -21.53603,11.97188 l -20.44325,11.82276 z"
       id="path64406"
       transform="scale(0.26458333)"
       sodipodi:nodetypes="sscscs" />
    <path
       style="fill:#c08562;fill-opacity:1;stroke-width:0.249449;stroke-linejoin:round;stroke-miterlimit:4;stroke-dasharray:none;paint-order:markers fill stroke"
       d="m 186.65526,289.25078 -4.24765,-4.65286 1.02525,-33.66572 c 0.56313,-18.49099 -0.051,-34.9971 0.0177,-34.99229 0.0687,0.005 10.28923,4.072 21.11654,8.64383 l 20.6369,8.71393 -0.0136,20.38536 0.014,20.74634 -15.2633,8.51819 c -7.99817,4.46365 -15.4527,8.78059 -16.70753,9.43152 l -3.05288,1.58364 z"
       id="path64445"
       transform="scale(0.26458333)"
       sodipodi:nodetypes="ccscscccsscc" />
    <path
       style="fill:#c08562;fill-opacity:1;stroke-width:0.249449;stroke-linejoin:round;stroke-miterlimit:4;stroke-dasharray:none;paint-order:markers fill stroke"
       d="m 160.59173,256.41699 -18.93171,-26.8166 -0.17571,-14.74664 c -0.10523,-8.83159 -0.32029,-16.4409 -0.0468,-16.27168 0.25146,0.1554 10.36571,4.20802 21.04296,8.61606 10.67725,4.40804 20.62725,8.61438 20.72844,8.71557 0.10119,0.10119 0.15074,16.16555 0.0799,34.02952 l -0.0641,34.60807 z"
       id="path64484"
       transform="scale(0.26458333)"
       sodipodi:nodetypes="ccscssccc" />
    <path
       style="fill:#c08562;fill-opacity:1;stroke-width:0.249449;stroke-linejoin:round;stroke-miterlimit:4;stroke-dasharray:none;paint-order:markers fill stroke"
       d="m 125.08557,207.7089 c -8.07958,-10.67148 -16.51478,-22.4527 -16.40603,-22.56146 0.10876,-0.10876 9.40698,3.73728 17.22926,7.03654 l 15.4507,6.51677 -0.059,11.27298 c -0.0303,5.78486 0.26613,11.75143 0.28735,13.54116 l 0.0722,6.0855 z"
       id="path64562"
       transform="scale(0.26458333)"
       sodipodi:nodetypes="ssscsscs" />
    <path
       style="fill:#c08562;fill-opacity:1;stroke-width:0.249449;stroke-linejoin:round;stroke-miterlimit:4;stroke-dasharray:none;paint-order:markers fill stroke"
       d="m 74.713907,355.00251 c 0,-0.8764 0.03614,-33.27159 -0.799754,-72.04333 -0.835895,-38.77173 -1.526115,-74.22638 -1.44647,-74.58928 0.07964,-0.3629 8.226046,10.46396 16.358854,21.42429 l 15.102423,20.35304 0.71814,39.98966 c 0.38965,21.69756 0.54821,41.9384 0.66271,45.08198 l 0.22285,6.11843 -4.03162,2.22696 c -6.057574,3.34603 -25.684983,14.03004 -25.917913,14.03004 -0.132649,0 -0.86922,-1.71539 -0.86922,-2.59179 z"
       id="path64601"
       transform="scale(0.26458333)"
       sodipodi:nodetypes="sssscsscsss" />
    <path
       style="fill:#c08562;fill-opacity:1;stroke-width:0.249449;stroke-linejoin:round;stroke-miterlimit:4;stroke-dasharray:none;paint-order:markers fill stroke"
       d="M 105.52138,332.85699 C 105.51031,328.90882 104.80912,309.3 104.4358,289.5 c -0.37332,-19.8 -0.32079,-38.54221 -0.26191,-38.60628 0.0589,-0.0641 10.07684,13.2896 20.18395,26.80955 l 18.72438,25.04701 -0.1131,8.90458 -0.1131,8.90457 -17,9.52171 c -9.35,5.23694 -19.97691,11.44238 -20.32066,11.58109 -0.48215,0.19456 0.002,-3.26744 -0.014,-8.80524 z"
       id="path64640"
       transform="scale(0.26458333)"
       sodipodi:nodetypes="sssscccsss" />
    <path
       style="fill:#c08562;fill-opacity:1;stroke-width:0.249449;stroke-linejoin:round;stroke-miterlimit:4;stroke-dasharray:none;paint-order:markers fill stroke"
       d="m 142.82572,312.32488 c 0,-3.64285 -0.12801,-9.65859 0.1056,-9.39641 0.94808,1.06401 9.34398,12.20043 9.34398,12.41977 0,0.26374 -8.68659,4.80272 -9.1493,4.80272 -0.16157,0 -0.30028,-4.19608 -0.30028,-7.82608 z"
       id="path64679"
       transform="scale(0.26458333)"
       sodipodi:nodetypes="sssss" />
    <path
       style="fill:#c08562;fill-opacity:1;stroke-width:0.249449;stroke-linejoin:round;stroke-miterlimit:4;stroke-dasharray:none;paint-order:markers fill stroke"
       d="m 163.0785,418.45881 -19.03031,-7.23423 -0.28184,-15.16208 c -0.002,-7.975 -0.3231,-16.64506 -0.0688,-19.25 l -0.16951,-5.14471 17.3442,-9.46799 18.93035,-9.9572 1.84215,2.45846 1.57999,2.38913 -0.01,34.11121 0.01,34.99083 z"
       id="path64718"
       transform="scale(0.26458333)"
       sodipodi:nodetypes="cccscccccccc" />
    <path
       style="fill:#c08562;fill-opacity:1;stroke-width:0.249449;stroke-linejoin:round;stroke-miterlimit:4;stroke-dasharray:none;paint-order:markers fill stroke"
       d="m 127.33559,404.78226 c -7.6855,-2.99987 -14.40811,-5.43479 -16.39052,-6.26166 l -4.44452,-1.85382 -0.0925,-2.74131 0.003,-2.64353 17.36126,-9.34595 c 9.54129,-5.13629 19.72352,-10.35032 19.80916,-10.24982 0.33478,0.39284 0.70731,39.26419 0.3765,39.23721 -0.19358,-0.0158 -7.78167,-2.69033 -15.46717,-5.6902 z"
       id="path64757"
       transform="scale(0.26458333)"
       sodipodi:nodetypes="sscccsssss" />
    <path
       style="fill:#c08562;fill-opacity:1;stroke-width:0.249449;stroke-linejoin:round;stroke-miterlimit:4;stroke-dasharray:none;paint-order:markers fill stroke"
       d="m 202.75376,434.5285 -19.52902,-8.33627 0.0993,-33.41342 c 0.0768,-25.86326 -0.2088,-35.5829 0.27179,-34.96631 0.33501,0.42981 11.37523,15.03515 22.06175,29.3328 l 19.54648,26.15152 0.15652,14.15846 c 0.0824,7.45577 -0.0486,14.38435 -0.25485,14.35625 -0.20625,-0.0281 -11.7164,-2.74308 -22.35194,-7.28303 z"
       id="path64796"
       transform="scale(0.26458333)"
       sodipodi:nodetypes="scssscsss" />
    <path
       style="fill:#c08562;fill-opacity:1;stroke-width:0.249449;stroke-linejoin:round;stroke-miterlimit:4;stroke-dasharray:none;paint-order:markers fill stroke"
       d="m 238.625,446.36941 -13.42097,-4.56713 0.0154,-12.48467 c 0.0122,-9.95946 -0.232,-15.9146 0.25159,-15.29109 3.54087,4.56529 28.60041,38.40008 28.60041,38.62932 0,0.48804 -2.48922,-1.28041 -15.4464,-6.28643 z"
       id="path64835"
       transform="scale(0.26458333)"
       sodipodi:nodetypes="scssss" />
    <path
       style="fill:#c08562;fill-opacity:1;stroke-width:0.249449;stroke-linejoin:round;stroke-miterlimit:4;stroke-dasharray:none;paint-order:markers fill stroke"
       d="m 365.35913,424.64983 c 0.0646,-0.21971 2.41699,-8.9168 6.28039,-18.92764 l 7.68102,-21.76858 0.22823,16.57764 0.33465,13.08671 -7.32043,7.01865 c -3.41524,3.27446 -8.24015,7.53896 -8.17557,7.31925 z"
       id="path64874"
       transform="scale(0.26458333)"
       sodipodi:nodetypes="sscccsss" />
    <path
       style="fill:#c08562;fill-opacity:1;stroke-width:0.249449;stroke-linejoin:round;stroke-miterlimit:4;stroke-dasharray:none;paint-order:markers fill stroke"
       d="m 404.13586,370.48285 0.005,-21.90346 3.24338,2.67233 c 4.96308,4.08927 20.36171,16.91997 20.28145,17.14434 -0.0532,0.14875 -5.74388,5.50863 -11.5672,10.82927 l -11.76416,10.74864 z"
       id="path64913"
       transform="scale(0.26458333)"
       sodipodi:nodetypes="ccssscc" />
    <path
       style="fill:#ac6b44;fill-opacity:1;stroke-width:0.249449;stroke-linejoin:round;stroke-miterlimit:4;stroke-dasharray:none;paint-order:markers fill stroke"
       d="m 328.65732,438.67529 -0.0902,-23.63176 17.17188,-49.10352 c 9.89617,-28.2984 17.85119,-51.17074 18.1695,-51.09523 0.30382,0.0721 7.97427,6.61505 15.50756,12.92979 l 14.18837,11.89333 -15.06702,45.18773 -14.84461,44.18511 -11.91746,11.25643 c -6.32036,5.96979 -13.43442,13.95839 -16.83198,16.25366 l -6.47658,5.96424 z"
       id="path64952"
       transform="scale(0.26458333)"
       sodipodi:nodetypes="ccssscccsscc" />
    <path
       style="fill:#ac6b44;fill-opacity:1;stroke-width:0.249449;stroke-linejoin:round;stroke-miterlimit:4;stroke-dasharray:none;paint-order:markers fill stroke"
       d="m 418.55236,360.65003 c -2.69406,-2.20086 -73.02084,-60.97266 -82.43186,-68.97222 l -7.00515,-5.95453 0.12411,-14.34288 0.0172,-15.61737 8.66867,-8.68313 10.07216,-10.15309 48.1669,43.70593 48.49758,44.15335 -0.2132,13.41594 0.066,14.08119 -3.20167,2.83827 c -1.54915,1.37331 -4.10357,4.2141 -7.01584,6.97557 l -6.46713,6.13224 z"
       id="path66627"
       transform="scale(0.26458333)"
       sodipodi:nodetypes="sscccccccccsscs" />
    <path
       style="fill:#ac6b44;fill-opacity:1;stroke-width:0.249449;stroke-linejoin:round;stroke-miterlimit:4;stroke-dasharray:none;paint-order:markers fill stroke"
       d="m 396.16439,280.63274 c -11.64479,-10.56201 -15.41781,-13.67223 -15.41781,-14.01007 0,-0.12891 7.49415,-22.51425 16.82428,-48.79627 l 17.30392,-48.7434 13.39163,-13.48463 16.36461,-16.56059 -0.18073,25.82695 0.19165,22.35626 -11.33147,33.55342 c -13.54398,40.10486 -23.57328,70.46875 -24.04795,71.31692 -0.23368,0.41757 -6.25437,-5.25121 -13.09813,-11.45859 z"
       id="path66666"
       transform="scale(0.26458333)"
       sodipodi:nodetypes="ssscccccsss" />
    <path
       style="fill:#ac6b44;fill-opacity:1;stroke-width:0.249449;stroke-linejoin:round;stroke-miterlimit:4;stroke-dasharray:none;paint-order:markers fill stroke"
       d="m 89.180054,390.1557 c -5.0875,-1.94768 -10.437966,-3.42441 -10.92329,-4.18159 l -2.225494,-0.74234 -0.14753,-5.64265 c -0.06934,-2.65204 -0.110211,-8.54121 -0.159107,-12.89642 l -0.100268,-8.931 3.016857,-1.53662 c 1.196377,-0.60937 9.058765,-4.85767 17.171265,-9.33859 16.619663,-9.17984 49.359063,-27.55105 117.816943,-65.98337 25.7125,-14.43503 47.80257,-27.06712 49.49446,-28.00885 l 4.05942,-2.25954 11.19599,4.46668 c 6.78169,2.70558 15.91738,6.59136 16.16449,6.74408 0.24711,0.15272 0.54298,7.46365 -0.0324,15.10402 l 0.11006,14.22791 -31.77938,16.89588 c -103.8827,55.23044 -161.70549,86.11218 -162.61259,86.09084 -0.252145,-0.006 -5.961886,-2.06076 -11.049386,-4.00844 z"
       id="path66705"
       transform="scale(0.26458333)"
       sodipodi:nodetypes="sscsscsssscssscssss" />
    <path
       style="fill:#ac6b44;fill-opacity:1;stroke-width:0.249449;stroke-linejoin:round;stroke-miterlimit:4;stroke-dasharray:none;paint-order:markers fill stroke"
       d="m 149.46937,311.38275 c -5.4814,-6.93835 -17.9229,-24.58559 -47.68109,-64.05776 L 72.369555,208.30308 71.993093,189.4837 c -0.193438,-9.66996 -0.658638,-19.66556 -0.524451,-19.66556 0.134186,0 8.386346,3.30958 15.505717,6.21365 7.11937,2.90407 15.089371,5.33398 16.840871,6.83667 l 4.34247,2.07755 28.47493,38.16211 c 47.41726,63.54864 54.00277,70.49291 53.5265,70.93743 -1.06407,0.99316 -35.21969,20.26637 -36.89173,20.93702 -0.88653,0.35559 -1.77583,-1.04012 -3.79803,-3.59982 z"
       id="path66744"
       transform="scale(0.26458333)"
       sodipodi:nodetypes="sscsssscssss" />
    <path
       style="fill:#ac6b44;fill-opacity:1;stroke-width:0.249449;stroke-linejoin:round;stroke-miterlimit:4;stroke-dasharray:none;paint-order:markers fill stroke"
       d="m 273.97486,460.74962 c -10.27558,-3.9497 -19.08167,-7.21428 -19.13882,-7.29703 -0.0571,-0.0827 -16.36364,-22.37896 -36.5705,-49.60396 -20.20686,-27.225 -38.08724,-51.28445 -38.26785,-51.58407 -0.20238,-0.33573 5.96155,-3.29341 14.19182,-7.65834 7.3452,-3.89553 16.56136,-8.73515 19.36586,-10.24304 l 5.00121,-2.689 38.37574,50.79959 37.76405,49.90807 -0.10616,17.31811 c -0.0582,9.49732 0.24202,18.87091 0.0358,18.84711 -0.20625,-0.0238 -10.37553,-3.84773 -20.65112,-7.79744 z"
       id="path66783"
       transform="scale(0.26458333)"
       sodipodi:nodetypes="sssssscccssss" />
    <path
       style="fill:#ac6b44;fill-opacity:1;stroke-width:0.249449;stroke-linejoin:round;stroke-miterlimit:4;stroke-dasharray:none;paint-order:markers fill stroke"
       d="m 105.79631,145.55316 c -15.641272,-6.43944 -18.872509,-7.4917 -18.424078,-7.85603 0.114584,-0.0931 8.058976,-6.38491 15.921708,-12.57891 l 14.7467,-11.61697 13.11383,-0.52979 c 24.40264,-0.98584 92.2118,-4.75503 96.87633,-4.75503 1.76,0 0.66498,0.98371 1.2222,2.15613 2.22502,4.68153 15.90365,35.60586 15.52928,35.68364 -1.31937,0.27413 -117.15418,6.32847 -121.36961,6.24199 -2.09432,-0.043 -4.47687,-1.33557 -17.61636,-6.74503 z"
       id="path66822"
       transform="scale(0.26458333)"
       sodipodi:nodetypes="ssscssssss" />
    <path
       style="fill:#ac6b44;fill-opacity:1;stroke-width:0.249449;stroke-linejoin:round;stroke-miterlimit:4;stroke-dasharray:none;paint-order:markers fill stroke"
       d="m 291.73152,125.30227 -9.21517,-19.57473 4.413,-0.34612 c 1.15026,-0.0902 25.26649,-1.83088 54.29782,-2.34932 l 53.04712,-2.12182 14.58509,5.81735 c 7.30614,2.9141 15.52942,6.48895 16.21692,6.85553 1.2451,0.66389 -1.4244,1.72891 -10.63818,10.86985 -5.0875,5.04729 -10.96679,10.9729 -12.9676,12.6802 -3.44933,2.94334 0.10571,2.47328 -2.37109,2.47602 -1.43669,0.002 -27.43644,1.16489 -52.18644,2.26324 -24.75,1.09836 -45.8977,1.9446 -46.04192,1.94466 -0.14421,6e-5 -5.06616,-8.40444 -9.13955,-18.51486 z"
       id="path66861"
       transform="scale(0.26458333)"
       sodipodi:nodetypes="scsscsssscsss" />
    <path
       style="fill:#ac6b44;fill-opacity:1;stroke-width:0.0623622;stroke-linejoin:round;stroke-miterlimit:4;stroke-dasharray:none;paint-order:markers fill stroke"
       d="m 245.34712,202.46424 -63.40289,-25.58924 -0.003,-0.60218 c -0.003,-0.5519 0.0181,-0.59535 0.2543,-0.52038 0.14172,0.045 8.04948,3.22688 17.57281,7.07092 9.52333,3.84403 17.3819,6.98914 17.46349,6.98914 0.22446,0 32.89899,-30.36988 32.85741,-30.53985 -0.0336,-0.1372 -5.27906,-12.23389 -5.3357,-12.30471 -0.0141,-0.0176 -10.42684,0.50257 -23.13941,1.15601 -12.71257,0.65345 -23.20017,1.18819 -23.30576,1.18832 -0.10559,1.2e-4 -1.23059,0.93826 -2.5,2.08473 -1.26941,1.14648 -4.75489,4.27714 -7.74551,6.95702 -2.99063,2.67989 -5.59219,5.01489 -5.78125,5.18889 l -0.34375,0.31636 v -0.75561 -0.75561 l 1.65625,-1.48534 c 7.88671,-7.07281 12.59397,-11.34165 12.55236,-11.38326 -0.0499,-0.0499 -11.60387,0.51168 -13.30236,0.64652 l -0.90625,0.072 v -0.6 -0.6 l 31.08624,-1.59562 c 17.09744,-0.87759 31.10744,-1.61682 31.13335,-1.64272 0.0259,-0.0259 -3.59349,-8.3773 -8.04309,-18.55866 l -8.09019,-18.51157 -0.82441,0.0671 c -0.90314,0.0735 -44.27557,2.18104 -44.88537,2.18104 -0.36174,0 -0.37653,-0.0216 -0.37653,-0.55084 v -0.55083 l 1.15625,-0.0775 c 0.63594,-0.0426 7.03437,-0.36036 14.21875,-0.70605 25.65865,-1.23461 30.0082,-1.45629 30.08525,-1.53335 0.0429,-0.043 -2.58383,-6.1679 -5.83729,-13.610999 -3.25345,-7.443101 -6.55976,-15.009474 -7.34733,-16.814161 -0.78758,-1.804688 -1.48384,-3.28125 -1.54724,-3.28125 -0.0634,0 -6.97692,5.625 -15.36337,12.5 -8.38645,6.875 -15.2744,12.5 -15.30656,12.5 -0.0322,0 -0.0585,-0.306798 -0.0585,-0.681772 v -0.681771 l 15.125,-12.396772 c 8.31875,-6.818225 15.125,-12.440615 15.125,-12.4942 0,-0.09316 -10.10582,-23.267976 -10.17786,-23.340014 -0.0192,-0.01916 -4.52916,3.454859 -10.02224,7.720033 L 182,64.692867 181.96148,64.04404 c -0.0323,-0.544291 0.008,-0.693078 0.25,-0.923475 0.15869,-0.151058 9.46919,-7.398588 20.69,-16.105624 l 20.40148,-15.830975 101.62976,41.087316 c 55.89638,22.598024 101.62978,41.131138 101.62978,41.184698 0,0.16608 -117.49074,114.60679 -117.65634,114.60201 -0.0859,-0.002 -28.68746,-11.51968 -63.55904,-25.59375 z m 74.0717,13.92638 10.63205,-10.35937 -0.28563,-0.57813 c -0.1571,-0.31797 -17.73953,-36.77933 -39.07205,-81.02526 L 251.90676,43.980727 237.89088,38.312439 c -7.70873,-3.117559 -14.12838,-5.68874 -14.26588,-5.713736 -0.31972,-0.05812 -20.64356,15.713009 -20.58819,15.976271 0.0528,0.250958 71.78834,164.404726 71.89805,164.525596 0.1092,0.12032 33.65443,13.69842 33.77103,13.66949 0.0445,-0.011 4.86531,-4.68179 10.71293,-10.37944 z m -47.1431,-6.45663 -1.14006,-2.62853 -1.53872,1.53478 c -1.27368,1.27041 -1.50067,1.55121 -1.31783,1.63023 0.2698,0.11663 5.08769,2.08317 5.11628,2.08834 0.0112,0.002 -0.49264,-1.17915 -1.11967,-2.62482 z m -1.73142,-3.73942 c 0.0185,-0.18376 -19.67464,-45.35528 -19.85934,-45.55266 -0.0556,-0.0594 -7.12313,6.40343 -15.70555,14.36195 -17.73046,16.44154 -16.48927,15.27794 -16.39608,15.37114 0.039,0.039 10.92052,4.45226 24.18125,9.80734 l 24.11042,9.73648 1.82555,-1.77191 c 1.00406,-0.97455 1.83374,-1.8531 1.84375,-1.95234 z m 76.17701,-16.41332 c 8.62378,-8.40469 23.55971,-22.95938 33.19096,-32.34375 l 17.51138,-17.0625 -0.71183,-0.0299 c -0.3915,-0.0164 -13.91362,0.54991 -30.04916,1.25853 l -29.33734,1.28842 -1.03766,0.98823 c -3.15062,3.00055 -23.72516,23.10499 -23.72516,23.18308 0,0.0738 16.59684,34.55011 17.94671,37.28036 0.19545,0.39531 0.39523,0.71875 0.44394,0.71875 0.0487,0 7.14439,-6.87656 15.76816,-15.28125 z m -21.49232,-36.7154 c 5.67565,-5.53254 10.3085,-10.06842 10.2952,-10.07975 -0.0517,-0.044 -33.76492,1.46297 -33.81344,1.51148 -0.0283,0.0283 2.26871,4.86136 5.10454,10.74006 l 5.15606,10.68855 1.46912,-1.4006 c 0.80803,-0.77033 6.11285,-5.9272 11.78852,-11.45974 z M 336.8125,141.7447 c 18.11562,-0.78729 39.4625,-1.71674 47.4375,-2.06546 l 14.5,-0.63403 1,-0.9645 c 8.66687,-8.35927 24.80292,-24.20219 24.72621,-24.27705 -0.0557,-0.0543 -6.85999,-2.83081 -15.12072,-6.16997 -14.73605,-5.95661 -15.03565,-6.07119 -15.875,-6.07127 -0.73062,-8e-5 -37.88392,1.50862 -95.27369,3.8688 -8.20501,0.33743 -14.94796,0.64327 -14.98433,0.67964 -0.0364,0.0364 3.523,7.50755 7.90971,16.60263 4.38672,9.09508 8.41747,17.456 8.95723,18.57983 l 0.98139,2.04332 1.4021,-0.0803 c 0.77116,-0.0441 16.22397,-0.7244 34.3396,-1.51168 z m -39.57607,-37.45057 12.86143,-0.51539 13.61243,-12.634723 c 10.73382,-9.962865 13.56508,-12.652821 13.38857,-12.72032 -0.12312,-0.04708 -9.69587,-3.91636 -21.27279,-8.598398 -11.5769,-4.682039 -21.06732,-8.512799 -21.08982,-8.512799 -0.0225,0 -0.0186,0.07031 0.009,0.15625 0.0273,0.08594 -5.12138,4.852444 -11.44143,10.592235 -6.32004,5.739792 -11.49099,10.470357 -11.49099,10.512366 0,0.04201 2.05945,4.345816 4.57656,9.564015 2.51712,5.218199 4.93318,10.235534 5.36904,11.149634 l 0.79247,1.66201 0.91221,-0.0697 c 0.50172,-0.0384 6.69986,-0.30167 13.77365,-0.58514 z m 48.48019,-1.96948 32.96664,-1.3555 2.05013,-1.984577 c 1.12757,-1.091515 2.01446,-2.023486 1.97087,-2.071046 -0.15126,-0.16503 -44.0548,-17.862008 -44.22205,-17.825367 -0.14907,0.03266 -26.54471,24.45187 -26.54471,24.55713 0,0.0691 -0.41885,0.0855 33.77912,-1.32064 z M 385.5,100.68726 c 1.925,-0.0695 4.05611,-0.16075 4.7358,-0.20277 l 1.2358,-0.0764 -3.66405,-1.485294 c -2.01523,-0.816913 -3.72521,-1.485296 -3.79998,-1.485296 -0.0747,0 -0.92267,0.789752 -1.88425,1.755005 l -1.74832,1.755005 0.8125,-0.0669 c 0.44687,-0.0368 2.3875,-0.1238 4.3125,-0.19331 z M 282.46833,71.28125 c 6.13927,-5.585938 11.18916,-10.207569 11.22198,-10.270291 0.0581,-0.110928 -39.99564,-16.372297 -40.0913,-16.276638 -0.0487,0.04871 17.59554,36.703179 17.6677,36.703179 0.0216,0 5.06236,-4.570313 11.20162,-10.15625 z"
       id="path66900"
       transform="scale(0.26458333)" />
    <path
       style="fill:#c08562;fill-opacity:1;stroke-width:0.0623622;stroke-linejoin:round;stroke-miterlimit:4;stroke-dasharray:none;paint-order:markers fill stroke"
       d="m 381.89733,98.774984 2.09818,-1.778517 3.80788,1.441143 c 2.2051,0.83455 4.74201,2.22982 4.59743,2.28095 -0.12144,0.043 -4.13553,0.28956 -6.57615,0.37266 -2.44063,0.0831 -5.66272,0.10154 -5.83459,0.1359 -0.23279,0.0465 0.59398,-1.338945 1.90725,-2.452136 z"
       id="path66939"
       transform="scale(0.26458333)"
       sodipodi:nodetypes="scsssss" />
    <path
       style="fill:#c08562;fill-opacity:1;stroke-width:0.00779528;stroke-linejoin:round;stroke-miterlimit:4;stroke-dasharray:none;paint-order:markers fill stroke"
       d="m 270.56366,211.46153 c -1.37059,-0.55344 -2.4829,-0.905 -2.6319,-0.97621 -0.009,-0.003 0.1211,-0.31443 0.1466,-0.36353 0.0479,-0.094 -0.0152,-0.26732 1.9603,-1.90623 l 1.097,-0.9101 -0.008,0.21408 c 0,0 0.66938,1.36257 1.24974,2.68991 0.58037,1.32735 1.05333,2.27997 1.0517,2.41688 -0.002,0.18931 -1.3518,-0.56861 -2.72239,-1.12205 z"
       id="path68302"
       transform="scale(0.26458333)"
       sodipodi:nodetypes="cccscssscc" />
    <path
       style="fill:#c08562;fill-opacity:1;stroke-width:0.124724;stroke-linejoin:round;stroke-miterlimit:4;stroke-dasharray:none;paint-order:markers fill stroke"
       d="m 221.7149,335.98688 c -1.20313,-1.58045 -3.16082,-4.21008 -3.15832,-4.3127 0.002,-0.10263 2.0063,-1.04496 3.23771,-1.70878 l 3.40974,-1.8381 -0.10846,5.41928 c -0.0469,2.34099 -0.0797,6.17954 -0.11412,6.17824 -0.0344,-0.001 -2.06343,-2.15749 -3.26655,-3.73794 z"
       id="path83407"
       transform="scale(0.26458333)"
       sodipodi:nodetypes="scscscs" />
    <path
       style="fill:#c08562;fill-opacity:1;stroke-width:0.00275605;stroke-linejoin:round;stroke-miterlimit:4;stroke-dasharray:none;paint-order:markers fill stroke"
       d="m 103.63681,395.15742 c -1.12722,-0.4413 -2.1087,-0.82119 -2.1103,-0.82279 -0.002,-0.002 1.01612,-0.55747 2.13308,-1.1506 1.11695,-0.59313 2.19885,-1.10777 2.19966,-1.10696 10e-4,0.001 0.0745,3.89257 0.0742,3.94267 -3e-5,0.007 0.0384,0.0306 0.0364,0.0304 -0.002,-2.4e-4 -0.93294,-0.3446 -2.06016,-0.7859 z"
       id="path85800"
       transform="scale(0.26458333)"
       sodipodi:nodetypes="ssssssss" />
  </g>
  <g
     inkscape:groupmode="layer"
     id="layer2"
     inkscape:label="Box Outline">
    <g
       id="g30205"
       transform="translate(14.763545,3.1560783)">
      <path
         style="fill:none;stroke:#000000;stroke-width:0.339967;stroke-linecap:butt;stroke-linejoin:miter;stroke-miterlimit:4;stroke-dasharray:none;stroke-opacity:1"
         d="m 12.734325,63.028708 0.424313,24.127373 m 0.232396,13.214519 0.02369,1.42474"
         id="path19469"
         sodipodi:nodetypes="cccc" />
      <path
         style="fill:none;stroke:#000000;stroke-width:0.339967;stroke-linecap:butt;stroke-linejoin:miter;stroke-miterlimit:4;stroke-dasharray:none;stroke-opacity:1"
         d="m 22.607647,49.251034 0.109687,8.341323 m 0.252433,19.197802 0.06401,4.868443 m 0.177807,13.52242 0.13762,10.466068"
         id="path19471"
         sodipodi:nodetypes="cccccc" />
      <g
         id="g8893"
         transform="matrix(1.2828934,0,0,1.2828934,-37.124399,-32.106671)">
        <g
           id="g8753">
          <path
             style="fill:none;stroke:#000000;stroke-width:0.264583px;stroke-linecap:butt;stroke-linejoin:round;stroke-opacity:1"
             d="M 29.052411,51.91666 81.948493,73.58354 111.40221,44.719193 62.961716,25.297339 Z"
             id="path8497"
             sodipodi:nodetypes="ccccc" />
          <path
             style="fill:none;stroke:#000000;stroke-width:0.264583px;stroke-linecap:butt;stroke-linejoin:round;stroke-opacity:1"
             d="m 29.052411,51.91666 0.763193,53.2912 52.489991,20.22272 29.051155,-28.083744 0.0455,-52.627643"
             id="path8589"
             sodipodi:nodetypes="ccccc" />
        </g>
        <path
           style="fill:none;stroke:#000000;stroke-width:0.264583px;stroke-linecap:butt;stroke-linejoin:round;stroke-opacity:1"
           d="m 81.948493,73.58354 0.3571,51.84704"
           id="path8807" />
      </g>
      <path
         style="fill:none;stroke:#000000;stroke-width:0.339967;stroke-linecap:butt;stroke-linejoin:miter;stroke-miterlimit:4;stroke-dasharray:none;stroke-opacity:1"
         d="M 33.714668,53.906949 V 72.13145 m 0,19.192584 v 18.283246"
         id="path19473"
         sodipodi:nodetypes="cccc" />
      <path
         style="fill:none;stroke:#000000;stroke-width:0.339432px;stroke-linecap:butt;stroke-linejoin:miter;stroke-opacity:1"
         d="M 4.138011,41.727637 63.171883,66.081592 63.170404,120.84352 5.3530616,98.769825 Z"
         id="path11173"
         sodipodi:nodetypes="ccccc" />
      <path
         style="fill:none;stroke:#000000;stroke-width:0.339432px;stroke-linecap:butt;stroke-linejoin:miter;stroke-opacity:1"
         d="M 72.352293,64.514557 102.87841,33.631001 102.84766,90.05219 72.143286,119.2177 Z"
         id="path11646"
         sodipodi:nodetypes="ccccc" />
      <path
         style="fill:none;stroke:#000000;stroke-width:0.339967;stroke-linecap:butt;stroke-linejoin:miter;stroke-miterlimit:4;stroke-dasharray:none;stroke-opacity:1"
         d="m 44.821688,58.570596 v 10.882763 m 0,14.207577 v 3.258482 m 0,19.275952 v 7.54207"
         id="path19475"
         sodipodi:nodetypes="cccccc" />
      <path
         style="fill:none;stroke:#000000;stroke-width:0.339432px;stroke-linecap:butt;stroke-linejoin:miter;stroke-opacity:1"
         d="M 8.2167712,33.318619 44.34046,5.2677566 97.863552,26.906257 66.953478,57.028517 Z"
         id="path12042"
         sodipodi:nodetypes="ccccc" />
      <path
         style="fill:none;stroke:#000000;stroke-width:0.339967;stroke-linecap:butt;stroke-linejoin:miter;stroke-miterlimit:4;stroke-dasharray:none;stroke-opacity:1"
         d="M 55.928705,77.775837 V 101.59584"
         id="path19477"
         sodipodi:nodetypes="cc" />
      <path
         style="fill:none;stroke:#000000;stroke-width:0.339432px;stroke-linecap:butt;stroke-linejoin:miter;stroke-opacity:1"
         d="M 5.2454013,91.501703 C 5.979569,91.378738 55.928706,63.157693 55.928706,63.157693"
         id="path12400"
         sodipodi:nodetypes="cc" />
      <path
         style="fill:none;stroke:#000000;stroke-width:0.339432px;stroke-linecap:butt;stroke-linejoin:miter;stroke-opacity:1"
         d="M 11.727965,101.21113 63.188368,73.884614"
         id="path12402"
         sodipodi:nodetypes="cc" />
      <path
         style="fill:none;stroke:#000000;stroke-width:0.339432px;stroke-linecap:butt;stroke-linejoin:miter;stroke-opacity:1"
         d="M 4.3342773,51.74432 25.553894,80.277141 m 7.255332,9.764302 19.922256,26.811567"
         id="path12404"
         sodipodi:nodetypes="cccc" />
      <path
         style="fill:none;stroke:#000000;stroke-width:0.339432px;stroke-linecap:butt;stroke-linejoin:miter;stroke-opacity:1"
         d="m 13.719567,45.664441 21.835545,28.957116 m 7.507771,9.977825 20.145314,26.645568"
         id="path12406"
         sodipodi:nodetypes="cccc" />
      <path
         style="fill:none;stroke:#000000;stroke-width:0.339432px;stroke-linecap:butt;stroke-linejoin:miter;stroke-opacity:1"
         d="M 17.861625,37.215392 50.080327,35.561831 M 64.791799,34.919116 90.831512,33.782197"
         id="path15089"
         sodipodi:nodetypes="cccc" />
      <path
         style="fill:none;stroke:#000000;stroke-width:0.339432px;stroke-linecap:butt;stroke-linejoin:miter;stroke-opacity:1"
         d="M 89.55486,23.5431 59.90622,24.757452 M 45.650989,25.452196 16.468041,26.87446"
         id="path15091"
         sodipodi:nodetypes="cccc" />
      <path
         style="fill:none;stroke:#000000;stroke-width:0.339432px;stroke-linecap:butt;stroke-linejoin:miter;stroke-opacity:1"
         d="M 38.755782,9.6430819 57.870947,53.375997"
         id="path15093"
         sodipodi:nodetypes="cc" />
      <path
         style="fill:none;stroke:#000000;stroke-width:0.339432px;stroke-linecap:butt;stroke-linejoin:miter;stroke-opacity:1"
         d="M 51.99369,8.3581006 72.754385,51.409823"
         id="path15095"
         sodipodi:nodetypes="cc" />
      <path
         style="fill:none;stroke:#000000;stroke-width:0.339432px;stroke-linecap:butt;stroke-linejoin:miter;stroke-opacity:1"
         d="M 72.169835,106.65752 81.492584,80.089463 M 85.957359,67.365692 95.005407,41.580466"
         id="path17429"
         sodipodi:nodetypes="cccc" />
      <path
         style="fill:none;stroke:#000000;stroke-width:0.339432px;stroke-linecap:butt;stroke-linejoin:miter;stroke-opacity:1"
         d="m 102.8813,46.379474 -9.332814,27.876719 m -4.170862,12.458193 -7.91412,23.646564"
         id="path17431"
         sodipodi:nodetypes="cccc" />
      <path
         style="fill:none;stroke:#000000;stroke-width:0.339432px;stroke-linecap:butt;stroke-linejoin:miter;stroke-opacity:1"
         d="m 72.31489,72.441539 9.154795,7.651598 16.963499,14.17812"
         id="path17433"
         sodipodi:nodetypes="ccc" />
      <path
         style="fill:none;stroke:#000000;stroke-width:0.339432px;stroke-linecap:butt;stroke-linejoin:miter;stroke-opacity:1"
         d="M 77.310802,59.530806 102.8866,82.776908"
         id="path17435"
         sodipodi:nodetypes="cc" />
      <path
         style="fill:none;stroke:#000000;stroke-width:0.339432px;stroke-linecap:butt;stroke-linejoin:miter;stroke-opacity:1"
         d="m 77.472006,76.753491 -0.09702,15.0599"
         id="path22797"
         sodipodi:nodetypes="cc" />
      <path
         style="fill:none;stroke:#000000;stroke-width:0.339432px;stroke-linecap:butt;stroke-linejoin:miter;stroke-opacity:1"
         d="m 85.434517,51.193421 0.08982,15.819604 m 0.174457,30.734542 0.0484,8.532773"
         id="path22912"
         sodipodi:nodetypes="cccc" />
      <path
         style="fill:none;stroke:#000000;stroke-width:0.339432px;stroke-linecap:butt;stroke-linejoin:miter;stroke-opacity:1"
         d="m 92.192234,44.365694 -0.0032,5.289017 m -0.02367,39.417507 -0.0063,11.157382"
         id="path22914"
         sodipodi:nodetypes="cccc" />
      <path
         style="fill:none;stroke:#000000;stroke-width:0.339432px;stroke-linecap:butt;stroke-linejoin:miter;stroke-opacity:1"
         d="m 98.411966,59.762565 0.01152,18.985401"
         id="path22916"
         sodipodi:nodetypes="cc" />
      <path
         style="fill:none;stroke:#000000;stroke-width:0.339432px;stroke-linecap:butt;stroke-linejoin:miter;stroke-opacity:1"
         d="M 29.189085,26.250006 41.557181,16.111658"
         id="path25800"
         sodipodi:nodetypes="cc" />
      <path
         style="fill:none;stroke:#000000;stroke-width:0.339432px;stroke-linecap:butt;stroke-linejoin:miter;stroke-opacity:1"
         d="m 30.638717,42.405886 c 0.701267,-0.58571 3.54065,-3.120609 7.003891,-6.245478 M 56.941504,18.662033 c 3.672182,-3.338537 6.223011,-5.66108 6.223011,-5.66108"
         id="path25802"
         sodipodi:nodetypes="cccc" />
      <path
         style="fill:none;stroke:#000000;stroke-width:0.339432px;stroke-linecap:butt;stroke-linejoin:miter;stroke-opacity:1"
         d="m 42.781693,47.240113 8.781433,-8.148917 m 15.815893,-14.676695 7.422225,-6.887612"
         id="path25804"
         sodipodi:nodetypes="cccc" />
      <path
         style="fill:none;stroke:#000000;stroke-width:0.339432px;stroke-linecap:butt;stroke-linejoin:miter;stroke-opacity:1"
         d="m 86.747181,22.485294 -1.204048,1.173047 m -11.144312,10.857333 -6.650174,6.478928 m -10.707392,10.431665 -1.159403,1.129547"
         id="path25806"
         sodipodi:nodetypes="cccccc" />
    </g>
  </g>
</svg>
